<svg xmlns="http://www.w3.org/2000/svg" width="600" height="400"><rect width="100%" height="100%" fill="#ddd"/><path fill="#999" d="M140.2 207.4v-13.1q-1.2-1.5-2.6-2.1t-3-.6-2.9.6-2.2 1.8-1.4 3q-.5 2-.5 4.5 0 2.6.4 4.3.5 1.8 1.2 3 .8 1 2 1.6 1 .5 2.4.5 2.2 0 3.7-1t3-2.5m0-33.7h7V216H143q-1.4 0-1.8-1.2l-.6-2.9q-1.8 2-4 3.3-2.4 1.3-5.4 1.3-2.4 0-4.4-1t-3.4-3-2.2-4.6-.8-6.4q0-3.2.9-6t2.5-4.9 4-3.2 5.1-1.1q2.5 0 4.2.7t3.1 2.1zm19.5 24.4H173q0-1.4-.4-2.6t-1.2-2.2-2-1.4-2.7-.5q-3 0-4.8 1.7-1.7 1.8-2.2 5m18 4.2h-18.2q.2 2.2.8 3.9t1.7 2.7 2.4 1.6 3.1.5 3-.4l2.2-.9 1.6-.8q.7-.4 1.3-.4 1 0 1.4.6l2 2.6q-1.2 1.3-2.6 2.3t-3 1.5-3.3.7-3.2.3q-3 0-5.7-1-2.6-1-4.5-3-2-2-3-5-1.2-2.9-1.2-6.7 0-3 1-5.7 1-2.6 2.8-4.5 1.8-2 4.4-3.1t5.9-1.2q2.7 0 5 1 2.4.8 4.1 2.5t2.6 4.2 1 5.6q0 1.6-.4 2.1-.3.6-1.3.6m7-28.6h7V216h-7zm14.2 0h7V216h-7zm38.6 27q1.3 0 2.3-.4 1-.3 1.6-1t1-1.4q.3-1 .3-2 0-2.2-1.3-3.4-1.3-1.3-3.9-1.3t-3.9 1.3-1.3 3.4q0 1 .4 2 .3.8 1 1.4.6.7 1.6 1t2.2.4m8 16.6q0-.8-.5-1.4t-1.4-.8l-2-.4-2.6-.2-2.7-.2-2.8-.2q-1.2.7-1.9 1.5t-.7 2q0 .9.4 1.5t1.2 1.2 2.2.7q1.3.3 3.3.3t3.3-.3 2.4-.8 1.4-1.3.4-1.6m-1.4-29.5h8.4v2.6q0 1.3-1.5 1.6l-2.6.4q.6 1.5.6 3.3 0 2.2-1 4-.8 1.7-2.3 3-1.6 1.2-3.7 1.8-2 .7-4.5.7H236l-1.6-.3q-1.4.8-1.4 1.8t.9 1.3 2.1.6 3 .2l3.6.2 3.5.5q1.7.4 3 1.1t2.2 2.1.8 3.4-1 3.8-2.7 3.3-4.5 2.3-6 .8-5.7-.6-4.1-1.7-2.4-2.5-.8-3q0-2 1.2-3.3t3.4-2.2q-1.2-.6-1.8-1.6t-.7-2.7l.2-1.3q.2-.7.7-1.4t1.2-1.3 1.7-1.1q-2.2-1.2-3.5-3.2t-1.3-4.7q0-2.1 1-3.9.8-1.7 2.3-3 1.6-1.2 3.7-1.9t4.6-.6q2 0 3.6.4t3 1m28.3 20.8v-5q-3 .2-5.1.6t-3.4 1-1.8 1.4-.5 1.7q0 1.8 1 2.6 1.2.8 3 .8 2.1 0 3.7-.7 1.6-.8 3-2.4M257.6 193l-1.2-2.2q5-4.6 12.1-4.6 2.6 0 4.6.8t3.4 2.3 2.1 3.6.8 4.6V216H276q-1 0-1.6-.3t-.8-1.2l-.7-2q-1 1-2.1 1.7-1 .7-2.2 1.2t-2.5.8-2.8.3q-1.9 0-3.4-.5-1.6-.5-2.7-1.5t-1.8-2.5-.6-3.4q0-1.1.3-2.2.4-1.1 1.2-2.1.9-1 2.2-2 1.4-.8 3.3-1.5 2-.6 4.6-1t5.9-.5v-1.7q0-3-1.3-4.4-1.2-1.4-3.6-1.4-1.7 0-2.8.4l-2 .9-1.6.9q-.7.4-1.5.4t-1.3-.4-.8-.9m35.4 23h-7v-29.3h4.3q1.3 0 1.8 1.3l.4 2.1 1.6-1.5 1.8-1.3 2-.8q1.2-.3 2.5-.3 2.8 0 4.5 1.5t2.7 4q.7-1.4 1.7-2.5 1-1 2.3-1.7t2.6-1 2.7-.3q2.5 0 4.3.8 2 .7 3.2 2.1t2 3.5q.6 2 .6 4.7V216h-7v-18.6q0-2.8-1.2-4.2-1.3-1.4-3.6-1.4-1.1 0-2 .4-1 .4-1.7 1t-1 1.8-.5 2.4V216h-7v-18.6q0-3-1.2-4.3t-3.5-1.3q-1.5 0-2.8.8-1.4.7-2.5 2zm41-29.3h7V216h-7zm8-8.5q0 .9-.4 1.7t-1 1.4-1.4 1-1.8.3-1.7-.4-1.4-1q-.6-.5-1-1.3-.3-.8-.3-1.7 0-1 .3-1.8.4-.8 1-1.4t1.4-1 1.7-.3 1.8.3 1.4 1 1 1.4.4 1.8m12.3 9.8.5 2.3q.8-.9 1.8-1.7t2.1-1.2 2.4-.9q1.2-.3 2.7-.3 2.4 0 4.2.9t3.1 2.2 2 3.5.6 4.5V216h-7v-18.6q0-2.7-1.3-4.1-1.2-1.5-3.7-1.5-1.9 0-3.5.8t-3 2.3V216h-7v-29.2h4.3q1.4 0 1.8 1.3m36.7 12.6q1.3 0 2.3-.4t1.6-1 1-1.4q.3-1 .3-2 0-2.2-1.3-3.4-1.3-1.3-3.9-1.3t-3.9 1.3-1.3 3.4q0 1 .4 2 .3.8 1 1.4t1.6 1 2.2.4m8 16.6q0-.8-.5-1.4t-1.4-.8q-1-.3-2.1-.4t-2.5-.2-2.8-.2-2.7-.2q-1.2.7-1.9 1.5t-.7 2q0 .9.4 1.5.3.7 1.2 1.2t2.2.7 3.2.3 3.4-.3q1.5-.3 2.4-.8 1-.5 1.3-1.3.5-.7.5-1.6m-1.4-29.5h8.4v2.6q0 1.3-1.5 1.6l-2.7.4q.6 1.5.6 3.3 0 2.2-.8 4t-2.4 3-3.7 1.8-4.5.7h-1.6l-1.6-.3q-1.4.8-1.4 1.8t.8 1.3q.9.5 2.2.6t3 .2q1.8 0 3.5.2l3.6.5q1.7.4 3 1.1t2.2 2.1.8 3.4-1 3.8-2.8 3.3-4.4 2.3-6 .8-5.8-.6-4-1.7-2.5-2.5-.8-3q0-2 1.3-3.3t3.4-2.2q-1.2-.6-1.9-1.6t-.6-2.7l.2-1.3q.2-.7.7-1.4t1.2-1.3 1.7-1.1q-2.2-1.2-3.5-3.2t-1.3-4.7q0-2.1.9-3.9t2.4-3 3.7-1.9q2.1-.6 4.6-.6 1.9 0 3.6.4 1.6.4 3 1m33.7 7.6v13.2q1.2 1.4 2.6 2t3 .6 3-.6 2.1-1.8 1.4-3.1.5-4.4-.4-4.4-1.2-2.9-1.8-1.6-2.5-.5q-2.2 0-3.8 1t-2.9 2.5m-1-7.2.6 2.7q1.8-2 4.1-3.3t5.4-1.2q2.4 0 4.4 1t3.4 2.8 2.2 4.7.8 6.4q0 3.3-.9 6t-2.5 4.9-4 3.2-5.2 1.2q-2.4 0-4.2-.8-1.7-.7-3-2v11.9h-7.1v-38.8h4.3q1.3 0 1.8 1.3m49 2.3-1.8 2.6-.6.6q-.3.2-.9.2-.5 0-1-.3t-1.3-.7l-1.7-.8q-1-.3-2.4-.3-1.8 0-3.2.7t-2.4 1.9-1.3 3-.5 4q0 2.4.5 4.2t1.4 3 2.3 2 3 .6 2.8-.4 1.7-1l1.2-.8q.6-.4 1.2-.4.9 0 1.3.6l2 2.6q-1.1 1.3-2.5 2.3t-2.8 1.5-3 .7-3.1.3q-2.8 0-5.1-1-2.4-1-4.2-3t-2.9-4.7-1-6.4q0-3.3 1-6 .8-2.8 2.6-4.8t4.5-3.1 6-1.2 5.8 1 4.5 3.1"/></svg>