<svg xmlns="http://www.w3.org/2000/svg" width="600" height="400"><rect width="100%" height="100%" fill="#ddd"/><path fill="#999" d="M160.4 200.4q3.7 0 6.4-1t4.6-2.8 2.8-4.3.9-5.5q0-6.2-3.7-9.8t-11-3.6-11.1 3.6-3.7 9.8q0 2.9 1 5.4t2.7 4.3 4.6 2.9 6.5 1m22.6 47.3q0-2.5-1.5-4t-4-2.4-5.8-1.2l-7.2-.7-7.8-.3q-4-.1-7.8-.7-3.3 1.9-5.4 4.4-2 2.5-2 5.8 0 2.2 1 4.1 1.2 2 3.6 3.3t6.2 2.2q3.8.7 9.3.7t9.6-.8 6.7-2.4 3.8-3.5 1.3-4.5m-4-84h23.9v7.4q0 3.6-4.3 4.4l-7.5 1.4q1.7 4.3 1.7 9.4 0 6.1-2.4 11.1-2.5 5-6.9 8.5-4.3 3.5-10.3 5.4t-12.8 1.9q-2.5 0-4.7-.3t-4.5-.6q-3.9 2.3-3.9 5.2 0 2.6 2.3 3.7t6.1 1.7 8.7.6 10 .5 10 1.4 8.6 3.2 6.1 6 2.3 9.7q0 5.5-2.7 10.7t-7.8 9.2-12.7 6.5-17 2.5-16.4-1.8-11.6-4.9-6.9-7-2.2-8.3q0-5.8 3.5-9.7 3.5-4 9.7-6.3-3.4-1.7-5.3-4.5-2-2.9-2-7.5 0-1.9.8-3.8.6-2 2-4t3.3-3.7 4.8-3q-6.3-3.5-10-9.1-3.5-5.7-3.5-13.3 0-6.2 2.5-11.2t6.8-8.5 10.5-5.4 13.2-1.8q5.3 0 10 1t8.6 3.3m64.2 81.5q-10.8 0-16.6-6-5.8-6.2-5.8-17v-46.4h-8.5q-1.6 0-2.8-1t-1.1-3.2v-8l13.3-2.1 4.3-22.7q.4-1.6 1.5-2.5t3-.9h10.3v26.2H263v14.2h-22.2v45q0 4 1.9 6.1 1.9 2.2 5.2 2.2 1.9 0 3.1-.4l2.2-1 1.7-.9q.7-.4 1.4-.4 1 0 1.5.4t1.2 1.4l6 9.7q-4.4 3.6-10 5.5-5.7 1.8-11.8 1.8m76.5-22.7v-14q-8.7.4-14.6 1.5-6 1-9.5 2.8t-5 4-1.6 4.9q0 5.2 3.1 7.5t8.1 2.3q6.2 0 10.7-2.3t8.8-6.7m-42.3-43.7-3.6-6.4q14.4-13.1 34.5-13.1 7.3 0 13 2.4t9.8 6.6 6 10.2 2.1 13v52.4h-9q-2.9 0-4.4-.8t-2.5-3.4l-1.8-6q-3.1 2.8-6.1 5-3 2-6.3 3.5t-6.9 2.3-8.1.7q-5.3 0-9.7-1.4-4.5-1.4-7.7-4.2t-5-7-1.8-9.9q0-3.1 1-6.3t3.5-6 6.2-5.3 9.3-4.3q5.6-1.9 13-3 7.3-1.2 16.8-1.5v-4.8q0-8.4-3.6-12.4t-10.3-4q-4.8 0-8 1.1t-5.7 2.6l-4.4 2.5q-2 1.2-4.4 1.2-2 0-3.6-1.1-1.4-1.1-2.3-2.6m117.6-52h81v8.7q0 3.9-.9 6.3t-1.6 4L429.1 237q-1.4 2.9-3.9 4.9t-6.7 2H404l45.3-89.6q1.5-2.7 3-5t3.4-4.4h-56q-2 0-3.3-1.4t-1.4-3.3z"/></svg>