<svg xmlns="http://www.w3.org/2000/svg" width="600" height="400"><rect width="100%" height="100%" fill="#ddd"/><path fill="#999" d="M131 227.2h-9.2v-38h5.6q1.7 0 2.3 1.7l.6 2.8 2-2q1-1 2.4-1.6t2.7-1 3.1-.5q3.6 0 6 2t3.4 5.1q.9-1.8 2.2-3.2t3-2.2 3.3-1.3 3.6-.4q3.2 0 5.6 1t4.1 2.8 2.5 4.5.9 6.1v24.2H166V203q0-3.6-1.6-5.4t-4.7-1.9q-1.4 0-2.6.5t-2.1 1.4-1.4 2.3-.5 3.1v24.2h-9.2V203q0-3.8-1.6-5.5-1.5-1.8-4.4-1.8-2 0-3.8 1t-3.2 2.7zm72.8-9.8V211q-4 .2-6.6.7t-4.4 1.3-2.3 1.8-.7 2.2q0 2.4 1.4 3.5 1.4 1 3.7 1 2.8 0 4.9-1 2-1 4-3.1m-19.3-20-1.6-2.9q6.5-6 15.7-6 3.4 0 6 1.1t4.4 3 2.8 4.7 1 6v23.9h-4.2q-1.3 0-2-.4t-1.1-1.6l-.8-2.7-2.8 2.3q-1.4 1-2.9 1.6t-3.2 1-3.7.4q-2.4 0-4.4-.7t-3.5-2-2.3-3.1-.8-4.5q0-1.4.4-2.9.5-1.4 1.6-2.7t2.9-2.4 4.2-2 6-1.4 7.6-.7v-2.2q0-3.8-1.6-5.6t-4.7-1.9q-2.2 0-3.7.6t-2.6 1.1l-2 1.2q-1 .5-2 .5t-1.6-.5-1.1-1.2m66.4-3.5-2.4 3.4-.8.8q-.4.3-1.1.3t-1.4-.5l-1.6-1q-.9-.5-2.2-.9-1.2-.4-3.1-.4-2.4 0-4.2.9t-3 2.5-1.9 3.9-.6 5.2.7 5.4 1.9 4 3 2.5q1.7.8 3.8.8t3.6-.5l2.3-1.2 1.6-1.2q.6-.5 1.5-.5 1.1 0 1.7.8l2.6 3.3q-1.5 1.8-3.3 3t-3.7 2-4 1l-4 .2q-3.4 0-6.5-1.3t-5.5-3.8-3.7-6.2-1.3-8.3q0-4.1 1.2-7.7t3.5-6.2 5.8-4 8-1.6q4.2 0 7.4 1.4t5.7 4m15.2 6.3v17q1.6 2 3.4 2.7t3.9.8q2 0 3.8-.8t2.8-2.3q1.2-1.6 1.9-4.1t.6-6q0-6.3-2-9-2.2-2.9-6-2.9-2.7 0-4.6 1.2-2 1.3-3.8 3.4m0-28v21.6q2.3-2.4 5.1-3.8 2.8-1.5 6.4-1.5 3.3 0 6 1.3 2.6 1.3 4.5 3.8t2.8 5.8 1 7.8-1.1 8.4q-1.2 3.7-3.3 6.4t-5.1 4.2-6.7 1.4q-1.8 0-3.2-.3t-2.7-1-2.2-1.5l-2-2-.4 2.5q-.2 1-.7 1.4-.6.4-1.5.4h-6v-55zm49.7 16.3q4.2 0 7.7 1.4 3.4 1.4 5.9 3.9t3.8 6.1 1.3 8.1-1.3 8.2-3.8 6.2-6 3.9q-3.4 1.3-7.6 1.3-4.3 0-7.7-1.3t-6-4q-2.4-2.5-3.8-6.1T297 208t1.3-8q1.4-3.7 3.8-6.2t6-3.9q3.4-1.4 7.7-1.4m0 32.1q4.7 0 7-3.2 2.3-3.1 2.3-9.3t-2.3-9.3-7-3.3-7.1 3.3q-2.4 3.2-2.4 9.3t2.4 9.3 7 3.2m25.8-48.5h9.1v31.5h1.7q1 0 1.5-.2t1-1l9.5-11.7q.6-.8 1.3-1.2t1.9-.4h8.4L364 203.3q-1.3 1.7-2.8 2.6.8.5 1.4 1.3t1.2 1.6l12.6 18.4h-8.2q-1 0-1.9-.4t-1.3-1.2l-9.7-14.4q-.5-.9-1-1.1t-1.7-.3h-2v17.4h-9.2zm77.6 45.2V211q-4 .2-6.7.7t-4.3 1.3-2.3 1.8-.7 2.2q0 2.4 1.4 3.5 1.4 1 3.7 1 2.8 0 4.9-1 2-1 4-3.1m-19.3-20-1.7-2.9q6.6-6 15.8-6 3.3 0 6 1.1t4.4 3 2.8 4.7.9 6v23.9h-4.1q-1.3 0-2-.4t-1.1-1.6l-.9-2.7q-1.4 1.3-2.8 2.3t-2.8 1.6-3.2 1-3.7.4q-2.4 0-4.4-.7t-3.6-2-2.3-3.1-.8-4.5q0-1.4.5-2.9.5-1.4 1.6-2.7 1-1.3 2.8-2.4 1.7-1.2 4.3-2t5.9-1.4 7.7-.7v-2.2q0-3.8-1.7-5.6-1.6-1.9-4.6-1.9-2.3 0-3.7.6t-2.6 1.1l-2 1.2q-1 .5-2 .5t-1.7-.5-1-1.2m37-8.2h9.3v38h-9.2zm10.5-11q0 1.2-.5 2.2t-1.2 1.8-2 1.2-2.2.5-2.2-.5-1.9-1.2q-.7-.8-1.2-1.8t-.5-2.2.5-2.3 1.2-1.9q.8-.8 1.9-1.2 1-.5 2.2-.5t2.3.5 1.9 1.2 1.2 1.9.5 2.3m16.2 13.3.5 4.3q1.8-3.4 4.2-5.3t5.8-2q2.6 0 4.2 1.2l-.6 6.8q-.2.7-.5 1t-1 .2l-1.6-.1-2.1-.2q-1.6 0-2.7.4t-2.2 1.3-1.6 2l-1.4 2.7v23.4h-9.1v-38h5.3q1.5 0 2 .5t.8 1.8"/></svg>