<svg xmlns="http://www.w3.org/2000/svg" width="600" height="400"><rect width="100%" height="100%" fill="#ddd"/><path fill="#999" d="M129 114h23v139h-23zm89 41q10 0 19 4t15 9 10 16q3 9 3 20 0 12-3 21-4 9-10 16t-15 10-19 3-20-3-15-10-10-16q-3-9-3-21 0-11 3-20 4-9 10-16 6-6 15-9t20-4m0 81q12 0 17-8t6-23-6-24-17-8q-13 0-18 8-6 8-6 24 0 15 6 23 5 8 18 8m100-34 7-1 5-3 4-5 1-6q0-8-5-12-4-4-12-4-9 0-13 4t-4 12l1 6 3 5 5 3zm26 55q0-3-2-5t-5-2-6-2-9-1-9 0l-9-1-6 5q-2 3-2 7l1 5 4 4 7 2 11 1 11-1 8-3 4-4zm-5-97h28v9q0 4-5 5l-9 1q2 5 2 11 0 7-3 13t-8 10-12 6-14 2h-6l-5-1q-4 3-4 6t2 4 7 2l10 1 12 1 11 1q6 1 10 4 5 2 7 7 3 4 3 11 0 6-3 12t-9 11-15 7-19 3-19-2l-14-5q-6-3-8-8l-2-10q0-7 4-11 4-5 11-8-4-1-6-5-2-3-2-8v-5l3-4q1-3 4-5t5-3q-7-4-11-11-4-6-4-15 0-7 2-13 3-6 8-10t12-6 16-2l11 1zm85-5q10 0 19 4t15 9 10 16q3 9 3 20 0 12-3 21-4 9-10 16t-15 10-19 3-20-3-15-10-9-16-4-21 4-20 9-16 15-9 20-4m0 81q12 0 17-8t6-23-6-24-17-8-18 8-6 24 6 23 18 8"/></svg>