<svg xmlns="http://www.w3.org/2000/svg" width="600" height="400" viewBox="0 0 600 400"><rect width="100%" height="100%" fill="#DDDDDD"/><path fill="#999999" d="M140.235 207.37v-13.11q-1.2-1.46-2.61-2.06-1.41-.59-3.04-.59-1.59 0-2.88.59-1.28.6-2.19 1.81-.91 1.22-1.4 3.08-.48 1.87-.48 4.4 0 2.57.41 4.35.42 1.78 1.19 2.91.76 1.12 1.88 1.62 1.11.5 2.48.5 2.19 0 3.73-.91t2.91-2.59m0-33.69h7.04v42.35h-4.31q-1.39 0-1.76-1.28l-.6-2.82q-1.77 2.02-4.06 3.27-2.3 1.26-5.35 1.26-2.39 0-4.39-1-1.99-1-3.43-2.89-1.44-1.9-2.22-4.69-.79-2.79-.79-6.39 0-3.24.89-6.04.88-2.79 2.53-4.84t3.96-3.21q2.31-1.15 5.19-1.15 2.45 0 4.19.77t3.11 2.08zm19.55 24.37h13.28q0-1.37-.39-2.58-.38-1.21-1.15-2.13-.77-.91-1.95-1.44-1.19-.52-2.75-.52-3.05 0-4.81 1.74-1.75 1.73-2.23 4.93m17.95 4.24h-18.1q.18 2.25.8 3.89.63 1.64 1.66 2.71 1.02 1.07 2.43 1.6 1.41.52 3.12.52t2.95-.4q1.24-.39 2.17-.88.93-.48 1.62-.88.7-.4 1.36-.4.88 0 1.31.65l2.02 2.57q-1.17 1.37-2.62 2.29-1.45.93-3.04 1.49-1.58.55-3.22.78-1.63.23-3.17.23-3.05 0-5.68-1.01-2.62-1.02-4.56-3-1.93-1.98-3.04-4.9-1.12-2.92-1.12-6.77 0-2.99.97-5.63.97-2.63 2.78-4.58 1.81-1.96 4.42-3.1t5.88-1.14q2.77 0 5.11.89 2.33.88 4.01 2.58 1.69 1.69 2.64 4.16.96 2.46.96 5.63 0 1.59-.35 2.15-.34.55-1.31.55m7.01-28.61h7.04v42.35h-7.04zm14.17 0h7.04v42.35h-7.04zm38.62 27.02q1.31 0 2.28-.36.96-.36 1.61-.98.64-.63.96-1.51.33-.89.33-1.94 0-2.17-1.29-3.44-1.3-1.26-3.89-1.26-2.6 0-3.89 1.26-1.3 1.27-1.3 3.44 0 1.02.33 1.91.32.88.97 1.52.64.64 1.62 1t2.27.36m7.95 16.64q0-.85-.52-1.4-.51-.54-1.39-.84-.89-.3-2.07-.44t-2.51-.21q-1.32-.07-2.73-.13t-2.75-.23q-1.17.66-1.9 1.54t-.73 2.05q0 .77.39 1.44.38.67 1.23 1.16.84.48 2.18.75 1.33.27 3.27.27 1.97 0 3.39-.3 1.43-.3 2.36-.82.92-.53 1.35-1.26.43-.72.43-1.58m-1.4-29.55h8.41v2.62q0 1.25-1.51 1.54l-2.62.48q.59 1.51.59 3.31 0 2.16-.87 3.92-.86 1.75-2.4 2.97-1.54 1.23-3.64 1.9-2.09.67-4.51.67-.86 0-1.66-.09-.8-.08-1.57-.22-1.36.82-1.36 1.85 0 .88.81 1.3.81.41 2.15.58t3.05.21q1.71.05 3.51.19 1.79.14 3.5.5 1.71.35 3.05 1.12t2.15 2.1q.81 1.32.81 3.4 0 1.94-.95 3.77-.95 1.82-2.76 3.25-1.81 1.42-4.45 2.29t-6 .87q-3.31 0-5.76-.64t-4.07-1.71q-1.63-1.07-2.42-2.47-.8-1.39-.8-2.91 0-2.05 1.24-3.43t3.4-2.21q-1.17-.6-1.85-1.59-.68-1-.68-2.63 0-.65.24-1.35t.71-1.38q.47-.69 1.18-1.3.72-.61 1.69-1.1-2.23-1.19-3.5-3.19-1.26-1.99-1.26-4.67 0-2.17.87-3.92.86-1.75 2.42-2.99 1.55-1.24 3.67-1.9 2.13-.65 4.64-.65 1.88 0 3.53.38 1.65.39 3.02 1.13m28.3 20.69v-4.93q-3.05.14-5.13.52-2.08.39-3.33.99-1.26.6-1.8 1.39-.54.8-.54 1.74 0 1.85 1.1 2.65 1.09.8 2.86.8 2.17 0 3.75-.78 1.58-.79 3.09-2.38m-14.88-15.36-1.25-2.26q5.04-4.61 12.14-4.61 2.57 0 4.59.84t3.42 2.34q1.4 1.49 2.12 3.57.73 2.08.73 4.56v18.47h-3.19q-1 0-1.54-.3t-.86-1.21l-.62-2.11q-1.12 1-2.17 1.75-1.05.76-2.19 1.27t-2.44.79q-1.3.27-2.87.27-1.85 0-3.42-.5-1.56-.5-2.7-1.5t-1.77-2.48-.63-3.45q0-1.11.37-2.21.37-1.09 1.22-2.09.84-1 2.18-1.88 1.33-.89 3.29-1.54 1.95-.66 4.54-1.07 2.6-.41 5.93-.5v-1.71q0-2.93-1.25-4.34-1.26-1.42-3.62-1.42-1.71 0-2.84.4-1.12.4-1.98.9-.85.5-1.55.9t-1.56.4q-.74 0-1.25-.39-.51-.38-.83-.89m35.4 22.91h-7.04v-29.24h4.3q1.37 0 1.8 1.28l.46 2.17q.77-.86 1.61-1.57t1.79-1.23q.96-.51 2.05-.81 1.1-.3 2.41-.3 2.77 0 4.55 1.5t2.66 3.97q.69-1.45 1.71-2.49 1.03-1.04 2.25-1.69 1.23-.66 2.61-.97 1.38-.32 2.78-.32 2.42 0 4.3.74 1.89.75 3.17 2.17t1.95 3.48q.67 2.05.67 4.7v18.61h-7.04v-18.61q0-2.79-1.23-4.2-1.22-1.42-3.59-1.42-1.08 0-2.01.38-.92.37-1.62 1.06-.7.7-1.1 1.76-.4 1.05-.4 2.42v18.61h-7.06v-18.61q0-2.94-1.19-4.28-1.18-1.34-3.46-1.34-1.54 0-2.86.76-1.33.76-2.47 2.07zm40.93-29.24h7.06v29.24h-7.06zm8.03-8.52q0 .91-.37 1.71t-.98 1.39q-.61.6-1.44.96t-1.77.36q-.91 0-1.72-.36t-1.41-.96q-.6-.59-.96-1.39-.35-.8-.35-1.71 0-.94.35-1.77.36-.83.96-1.42.6-.6 1.41-.96t1.72-.36q.94 0 1.77.36t1.44.96q.61.59.98 1.42t.37 1.77m12.32 9.8.48 2.31q.88-.88 1.87-1.64.98-.75 2.08-1.28 1.09-.53 2.35-.83 1.25-.3 2.73-.3 2.4 0 4.25.82 1.85.81 3.09 2.28 1.24 1.46 1.88 3.5.65 2.04.65 4.49v18.61h-7.04v-18.61q0-2.68-1.23-4.15-1.22-1.47-3.73-1.47-1.83 0-3.42.83-1.6.83-3.02 2.25v21.15h-7.04v-29.24h4.3q1.37 0 1.8 1.28m36.73 12.63q1.31 0 2.28-.36t1.61-.98q.64-.63.97-1.51.33-.89.33-1.94 0-2.17-1.3-3.44-1.29-1.26-3.89-1.26-2.59 0-3.89 1.26-1.29 1.27-1.29 3.44 0 1.02.32 1.91.33.88.97 1.52t1.63 1q.98.36 2.26.36m7.95 16.64q0-.85-.51-1.4-.51-.54-1.4-.84-.88-.3-2.06-.44t-2.51-.21-2.74-.13-2.75-.23q-1.16.66-1.89 1.54t-.73 2.05q0 .77.39 1.44.38.67 1.22 1.16.84.48 2.18.75t3.28.27q1.97 0 3.39-.3 1.43-.3 2.35-.82.93-.53 1.36-1.26.42-.72.42-1.58m-1.39-29.55h8.4v2.62q0 1.25-1.51 1.54l-2.62.48q.6 1.51.6 3.31 0 2.16-.87 3.92-.87 1.75-2.41 2.97-1.54 1.23-3.63 1.9-2.1.67-4.52.67-.85 0-1.65-.09-.8-.08-1.57-.22-1.37.82-1.37 1.85 0 .88.82 1.3.81.41 2.15.58t3.05.21q1.71.05 3.5.19 1.8.14 3.51.5 1.71.35 3.05 1.12t2.15 2.1q.81 1.32.81 3.4 0 1.94-.95 3.77-.96 1.82-2.77 3.25-1.81 1.42-4.44 2.29-2.64.87-6 .87-3.31 0-5.76-.64t-4.08-1.71q-1.62-1.07-2.42-2.47-.8-1.39-.8-2.91 0-2.05 1.24-3.43t3.41-2.21q-1.17-.6-1.85-1.59-.69-1-.69-2.63 0-.65.25-1.35.24-.7.71-1.38.47-.69 1.18-1.3t1.68-1.1q-2.22-1.19-3.49-3.19-1.27-1.99-1.27-4.67 0-2.17.87-3.92t2.42-2.99q1.56-1.24 3.68-1.9 2.12-.65 4.63-.65 1.88 0 3.54.38 1.65.39 3.02 1.13m33.74 7.55v13.11q1.2 1.45 2.61 2.05t3.06.6q1.6 0 2.88-.6t2.18-1.82q.9-1.23 1.38-3.1.49-1.86.49-4.4 0-2.56-.41-4.34-.42-1.79-1.19-2.9t-1.86-1.62q-1.1-.52-2.5-.52-2.19 0-3.73.93t-2.91 2.61m-.94-7.27.57 2.71q1.8-2.02 4.08-3.28 2.28-1.25 5.35-1.25 2.4 0 4.38.99 1.98 1 3.42 2.9 1.44 1.89 2.22 4.67.79 2.78.79 6.37 0 3.28-.89 6.07-.88 2.79-2.52 4.85-1.64 2.05-3.96 3.2-2.32 1.16-5.2 1.16-2.45 0-4.19-.76-1.74-.75-3.11-2.09v11.97h-7.04v-38.79h4.31q1.36 0 1.79 1.28m49.08 2.34-1.85 2.56q-.32.4-.62.63t-.87.23q-.54 0-1.05-.33t-1.23-.74q-.71-.41-1.69-.74-.99-.33-2.44-.33-1.85 0-3.25.67-1.39.67-2.32 1.92-.93 1.26-1.38 3.04-.46 1.78-.46 4.03 0 2.34.5 4.16.5 1.83 1.44 3.07t2.28 1.88 3.02.64 2.72-.41q1.04-.42 1.75-.92.72-.49 1.24-.91.53-.41 1.19-.41.85 0 1.28.65l2.02 2.57q-1.17 1.37-2.53 2.29-1.37.93-2.84 1.49-1.47.55-3.02.78t-3.09.23q-2.71 0-5.1-1.01-2.4-1.02-4.19-2.95-1.8-1.94-2.84-4.75t-1.04-6.4q0-3.22.93-5.97.92-2.75 2.72-4.76 1.79-2.01 4.44-3.15t6.1-1.14q3.28 0 5.75 1.06 2.46 1.05 4.43 3.02"/></svg>