<svg xmlns="http://www.w3.org/2000/svg" width="600" height="400" viewBox="0 0 600 400"><rect width="100%" height="100%" fill="#DDDDDD"/><path fill="#999999" d="M160.36 200.365q3.72 0 6.48-1.01 2.75-1.01 4.57-2.79 1.83-1.79 2.76-4.3t.93-5.51q0-6.15-3.69-9.76-3.68-3.6-11.05-3.6t-11.06 3.6q-3.69 3.61-3.69 9.76 0 2.92.94 5.43.93 2.51 2.75 4.33 1.82 1.83 4.62 2.84 2.79 1.01 6.44 1.01m22.6 47.31q0-2.43-1.46-3.97t-3.97-2.39-5.87-1.26q-3.37-.4-7.13-.61-3.77-.2-7.78-.36t-7.81-.65q-3.33 1.86-5.39 4.38-2.07 2.51-2.07 5.83 0 2.18 1.1 4.09 1.09 1.9 3.48 3.28t6.2 2.15q3.8.77 9.31.77 5.59 0 9.64-.86 4.05-.85 6.68-2.34 2.64-1.5 3.85-3.57 1.22-2.06 1.22-4.49m-3.97-84h23.89v7.45q0 3.57-4.29 4.37l-7.45 1.38q1.7 4.3 1.7 9.4 0 6.15-2.47 11.14-2.47 4.98-6.85 8.46-4.37 3.48-10.33 5.39-5.95 1.9-12.83 1.9-2.43 0-4.7-.24-2.27-.25-4.46-.65-3.88 2.35-3.88 5.26 0 2.52 2.3 3.69 2.31 1.17 6.12 1.66t8.67.61 9.96.52q5.1.41 9.96 1.42t8.67 3.2 6.11 5.95q2.31 3.77 2.31 9.68 0 5.51-2.71 10.7-2.71 5.18-7.86 9.23-5.14 4.05-12.63 6.52-7.5 2.47-17.05 2.47-9.4 0-16.37-1.82-6.96-1.82-11.58-4.86t-6.88-7.01q-2.27-3.97-2.27-8.26 0-5.83 3.52-9.76 3.53-3.93 9.68-6.28-3.32-1.7-5.26-4.53-1.95-2.84-1.95-7.46 0-1.86.69-3.84.69-1.99 2.03-3.93 1.33-1.95 3.36-3.69 2.02-1.74 4.78-3.12-6.32-3.4-9.93-9.07-3.6-5.67-3.6-13.28 0-6.16 2.47-11.14t6.88-8.5q4.42-3.53 10.45-5.39 6.04-1.86 13.17-1.86 5.34 0 10.04 1.09t8.59 3.2m64.23 81.57q-10.85 0-16.65-6.12-5.79-6.12-5.79-16.89v-46.41h-8.5q-1.62 0-2.76-1.05-1.13-1.06-1.13-3.16v-7.94l13.36-2.19 4.22-22.68q.4-1.62 1.54-2.51 1.13-.89 2.91-.89h10.37v26.16h22.19v14.26h-22.19v45.03q0 3.89 1.9 6.08 1.91 2.19 5.23 2.19 1.86 0 3.12-.45 1.25-.44 2.18-.93t1.66-.93q.73-.45 1.46-.45.89 0 1.46.45.57.44 1.21 1.34l6 9.71q-4.38 3.65-10.05 5.51-5.67 1.87-11.74 1.87m76.46-22.76v-14.02q-8.66.41-14.58 1.5-5.91 1.09-9.47 2.79-3.57 1.71-5.11 3.97-1.54 2.27-1.54 4.94 0 5.27 3.12 7.54t8.14 2.27q6.16 0 10.66-2.23 4.49-2.23 8.78-6.76m-42.28-43.66-3.56-6.4q14.33-13.12 34.5-13.12 7.29 0 13.04 2.38 5.76 2.39 9.72 6.65 3.97 4.25 6.04 10.16 2.06 5.91 2.06 12.96v52.49h-9.07q-2.83 0-4.37-.85t-2.43-3.44l-1.78-6q-3.16 2.84-6.16 4.98-3 2.15-6.24 3.61t-6.92 2.23q-3.69.77-8.14.77-5.27 0-9.72-1.42-4.46-1.42-7.7-4.25-3.24-2.84-5.02-7.05t-1.78-9.8q0-3.16 1.05-6.28t3.44-5.95q2.39-2.84 6.2-5.35t9.36-4.37q5.54-1.87 12.92-3.04 7.37-1.17 16.84-1.42v-4.86q0-8.34-3.56-12.35t-10.29-4.01q-4.86 0-8.06 1.13-3.2 1.14-5.63 2.56-2.43 1.41-4.41 2.55-1.99 1.13-4.42 1.13-2.1 0-3.56-1.09-1.46-1.1-2.35-2.55m117.61-52.01h80.92v8.67q0 3.89-.81 6.28t-1.62 4.01l-44.39 91.37q-1.37 2.83-3.88 4.82-2.51 1.98-6.73 1.98H404l45.28-89.51q1.54-2.75 3.04-5.06t3.36-4.41h-56.05q-1.86 0-3.24-1.38t-1.38-3.24z"/></svg>