<svg xmlns="http://www.w3.org/2000/svg" width="300" height="200" viewBox="0 0 300 200"><rect width="100%" height="100%" fill="#DDDDDD"/><path fill="#999999" d="M63.39 84.195h8.43v34.88h-8.43zm9.58-10.17q0 1.09-.44 2.04t-1.17 1.67q-.73.71-1.72 1.13-.98.43-2.11.43-1.08 0-2.05-.43-.97-.42-1.69-1.13-.71-.72-1.14-1.67-.42-.95-.42-2.04 0-1.12.42-2.11.43-.98 1.14-1.7.72-.71 1.69-1.14.97-.42 2.05-.42 1.13 0 2.11.42.99.43 1.72 1.14.73.72 1.17 1.7.44.99.44 2.11m15.81 45.05h-8.39v-34.88h5.13q1.63 0 2.14 1.53l.55 2.58q.91-1.02 1.92-1.87 1-.85 2.14-1.46t2.45-.97 2.87-.36q3.3 0 5.42 1.79 2.13 1.78 3.18 4.74.82-1.73 2.04-2.98 1.23-1.24 2.69-2.02t3.11-1.15q1.65-.38 3.31-.38 2.89 0 5.14.89 2.24.88 3.77 2.58t2.33 4.15.8 5.61v22.2h-8.4v-22.2q0-3.33-1.46-5.02-1.46-1.68-4.28-1.68-1.3 0-2.4.44-1.11.44-1.94 1.28-.83.83-1.31 2.09-.47 1.26-.47 2.89v22.2h-8.44v-22.2q0-3.5-1.41-5.1t-4.13-1.6q-1.83 0-3.42.9-1.58.9-2.94 2.47zm66.98-9.01v-5.88q-3.63.17-6.12.63-2.48.46-3.97 1.17-1.5.71-2.15 1.67-.64.95-.64 2.07 0 2.21 1.31 3.16t3.41.95q2.59 0 4.47-.93 1.89-.94 3.69-2.84m-17.74-18.33-1.5-2.68q6.02-5.51 14.48-5.51 3.06 0 5.48 1 2.41 1.01 4.08 2.79 1.66 1.79 2.53 4.27t.87 5.44v22.03h-3.81q-1.19 0-1.84-.36-.64-.35-1.02-1.44l-.74-2.52q-1.33 1.19-2.59 2.09t-2.62 1.52q-1.36.61-2.9.93-1.55.32-3.42.32-2.21 0-4.08-.59-1.87-.6-3.23-1.79t-2.11-2.95q-.75-1.77-.75-4.12 0-1.32.45-2.63.44-1.31 1.44-2.5t2.6-2.25q1.6-1.05 3.93-1.83t5.42-1.28q3.1-.49 7.07-.59v-2.04q0-3.5-1.49-5.19-1.5-1.68-4.32-1.68-2.04 0-3.38.48-1.35.47-2.37 1.07l-1.85 1.07q-.83.47-1.85.47-.89 0-1.5-.46-.61-.45-.98-1.07m46.58 9.05q1.56 0 2.72-.43 1.15-.42 1.92-1.17.76-.75 1.15-1.8.39-1.06.39-2.31 0-2.59-1.54-4.1-1.55-1.51-4.64-1.51-3.1 0-4.65 1.51-1.54 1.51-1.54 4.1 0 1.22.39 2.27.39 1.06 1.15 1.82.77.77 1.94 1.19 1.18.43 2.71.43m9.48 19.85q0-1.02-.61-1.66-.61-.65-1.67-1-1.05-.36-2.46-.53t-2.99-.26q-1.58-.08-3.27-.15-1.68-.07-3.28-.27-1.39.78-2.26 1.83-.87 1.06-.87 2.45 0 .92.46 1.72t1.46 1.38q1.01.57 2.61.9 1.59.32 3.91.32 2.34 0 4.04-.36 1.7-.35 2.81-.98 1.1-.63 1.61-1.5t.51-1.89m-1.66-35.25h10.03v3.12q0 1.5-1.81 1.84l-3.12.58q.71 1.8.71 3.94 0 2.59-1.04 4.68-1.03 2.09-2.87 3.55t-4.33 2.26q-2.5.8-5.39.8-1.02 0-1.98-.1-.95-.1-1.87-.27-1.63.98-1.63 2.21 0 1.05.97 1.54.97.5 2.57.7t3.64.25q2.04.06 4.18.23t4.18.59q2.04.43 3.64 1.34 1.6.92 2.56 2.5.97 1.58.97 4.07 0 2.31-1.14 4.48-1.13 2.18-3.29 3.88t-5.31 2.74q-3.14 1.03-7.15 1.03-3.95 0-6.87-.76-2.93-.77-4.86-2.04-1.94-1.28-2.89-2.94-.96-1.67-.96-3.47 0-2.45 1.48-4.1t4.07-2.63q-1.4-.72-2.21-1.91-.82-1.19-.82-3.12 0-.79.29-1.62t.85-1.65q.56-.81 1.41-1.55.85-.73 2.01-1.3-2.66-1.43-4.17-3.81t-1.51-5.58q0-2.58 1.03-4.67 1.04-2.09 2.89-3.57 1.86-1.48 4.39-2.26 2.53-.79 5.53-.79 2.24 0 4.21.46t3.61 1.35m21.96 12.24h15.84q0-1.64-.45-3.08-.46-1.45-1.38-2.53-.92-1.09-2.33-1.72t-3.28-.63q-3.64 0-5.73 2.07-2.09 2.08-2.67 5.89m21.42 5.06h-21.59q.2 2.69.95 4.64.75 1.96 1.97 3.23 1.23 1.28 2.91 1.91t3.72.63 3.52-.48 2.59-1.05q1.1-.58 1.94-1.06.83-.47 1.61-.47 1.05 0 1.56.78l2.42 3.06q-1.4 1.63-3.13 2.73-1.73 1.11-3.62 1.77-1.89.67-3.84.94-1.96.27-3.79.27-3.64 0-6.77-1.21-3.13-1.2-5.44-3.57-2.31-2.36-3.64-5.85-1.32-3.48-1.32-8.07 0-3.57 1.15-6.72 1.16-3.14 3.32-5.47t5.27-3.69 7.02-1.36q3.3 0 6.08 1.06 2.79 1.05 4.8 3.07 2 2.03 3.14 4.97t1.14 6.71q0 1.91-.41 2.57-.4.66-1.56.66"/></svg>