<svg xmlns="http://www.w3.org/2000/svg" width="600" height="400" viewBox="0 0 600 400"><rect width="100%" height="100%" fill="#DDDDDD"/><path fill="#999999" d="M130.93 227.195h-9.14v-37.96h5.58q1.78 0 2.34 1.66l.59 2.82q1-1.11 2.09-2.04t2.33-1.59q1.24-.67 2.66-1.06 1.43-.38 3.13-.38 3.59 0 5.9 1.94t3.46 5.16q.89-1.89 2.22-3.24t2.92-2.2 3.39-1.26q1.79-.4 3.61-.4 3.14 0 5.58.96 2.45.96 4.11 2.81 1.67 1.85 2.53 4.51.87 2.67.87 6.11v24.16h-9.13v-24.16q0-3.63-1.6-5.46-1.59-1.83-4.66-1.83-1.4 0-2.61.48-1.2.48-2.11 1.39-.9.91-1.42 2.27-.52 1.37-.52 3.15v24.16h-9.17v-24.16q0-3.81-1.54-5.55-1.53-1.74-4.49-1.74-2 0-3.72.98t-3.2 2.68zm72.89-9.8v-6.41q-3.96.19-6.66.69t-4.33 1.28q-1.63.77-2.33 1.81-.71 1.03-.71 2.26 0 2.4 1.43 3.44 1.42 1.03 3.72 1.03 2.81 0 4.86-1.02 2.06-1.01 4.02-3.08m-19.32-19.95-1.63-2.92q6.55-5.99 15.77-5.99 3.33 0 5.95 1.09 2.63 1.09 4.44 3.03 1.82 1.94 2.76 4.64t.94 5.92v23.98h-4.14q-1.3 0-2-.39t-1.11-1.57l-.81-2.74q-1.45 1.3-2.81 2.28-1.37.98-2.85 1.64-1.48.67-3.17 1.02-1.68.35-3.72.35-2.4 0-4.44-.65-2.03-.64-3.51-1.94-1.48-1.29-2.29-3.22-.82-1.92-.82-4.47 0-1.45.48-2.87.48-1.43 1.57-2.72 1.1-1.3 2.84-2.44 1.73-1.15 4.27-2 2.53-.85 5.9-1.39 3.37-.53 7.7-.65v-2.22q0-3.81-1.63-5.64t-4.7-1.83q-2.22 0-3.68.52t-2.57 1.16q-1.11.65-2.02 1.17t-2.02.52q-.96 0-1.62-.5-.67-.5-1.08-1.17m66.42-3.51-2.41 3.33q-.4.52-.79.81-.39.3-1.13.3-.7 0-1.37-.43-.67-.42-1.59-.96-.93-.54-2.2-.96-1.28-.43-3.17-.43-2.4 0-4.21.87-1.82.87-3.02 2.5t-1.79 3.94q-.6 2.31-.6 5.24 0 3.03.65 5.4.65 2.36 1.87 3.97t2.96 2.45q1.74.83 3.92.83t3.53-.54q1.36-.53 2.28-1.18.93-.65 1.61-1.19.68-.53 1.54-.53 1.11 0 1.66.85l2.63 3.33q-1.52 1.78-3.3 2.98-1.77 1.2-3.68 1.92-1.9.72-3.92 1.02-2.02.29-4.01.29-3.52 0-6.63-1.31-3.1-1.31-5.44-3.83-2.33-2.51-3.68-6.16-1.35-3.64-1.35-8.3 0-4.19 1.2-7.76 1.21-3.57 3.54-6.18 2.33-2.6 5.77-4.08t7.92-1.48q4.25 0 7.45 1.37 3.2 1.36 5.76 3.92m15.2 6.4v17.02q1.56 1.89 3.39 2.66 1.83.78 3.87.78 2.11 0 3.79-.76t2.87-2.37q1.18-1.61 1.81-4.1.63-2.5.63-5.98 0-6.25-2.07-9.05-2.08-2.79-5.96-2.79-2.63 0-4.59 1.2-1.96 1.21-3.74 3.39m0-28.12v21.68q2.3-2.4 5.09-3.83 2.8-1.42 6.38-1.42 3.3 0 5.94 1.29 2.65 1.3 4.52 3.72t2.86 5.86q1 3.45 1 7.74 0 4.62-1.14 8.4-1.15 3.77-3.28 6.45-2.13 2.69-5.12 4.17-3 1.47-6.66 1.47-1.78 0-3.22-.35t-2.67-.98q-1.22-.63-2.23-1.53-1.02-.91-1.95-2.02l-.4 2.55q-.23.97-.76 1.37-.54.41-1.46.41h-6.03v-54.98zm49.66 16.43q4.22 0 7.68 1.37 3.46 1.36 5.92 3.88t3.79 6.14q1.33 3.63 1.33 8.11 0 4.51-1.33 8.14-1.33 3.62-3.79 6.17-2.46 2.56-5.92 3.93-3.46 1.36-7.68 1.36-4.26 0-7.73-1.36-3.48-1.37-5.94-3.93-2.46-2.55-3.81-6.17-1.35-3.63-1.35-8.14 0-4.48 1.35-8.11 1.35-3.62 3.81-6.14t5.94-3.88q3.47-1.37 7.73-1.37m0 32.08q4.73 0 7.01-3.19 2.28-3.18 2.28-9.32t-2.28-9.36-7.01-3.22q-4.81 0-7.12 3.24-2.32 3.23-2.32 9.34 0 6.1 2.32 9.3 2.31 3.21 7.12 3.21m25.71-48.51h9.14v31.49h1.7q.93 0 1.47-.25.53-.24 1.09-.98l9.43-11.65q.59-.78 1.32-1.18.72-.41 1.86-.41h8.37l-11.81 14.1q-1.25 1.66-2.73 2.55.77.55 1.38 1.29t1.17 1.59l12.65 18.43h-8.25q-1.07 0-1.85-.35t-1.29-1.28l-9.7-14.39q-.52-.85-1.07-1.11-.56-.26-1.67-.26h-2.07v17.39h-9.14zm77.59 45.18v-6.41q-3.96.19-6.66.69t-4.33 1.28q-1.63.77-2.33 1.81-.7 1.03-.7 2.26 0 2.4 1.42 3.44 1.43 1.03 3.72 1.03 2.81 0 4.87-1.02 2.05-1.01 4.01-3.08m-19.31-19.95-1.63-2.92q6.55-5.99 15.76-5.99 3.33 0 5.96 1.09t4.44 3.03 2.76 4.64q.94 2.7.94 5.92v23.98h-4.15q-1.29 0-1.99-.39-.71-.39-1.11-1.57l-.82-2.74q-1.44 1.3-2.81 2.28t-2.85 1.64q-1.48.67-3.16 1.02t-3.72.35q-2.4 0-4.44-.65-2.03-.64-3.52-1.94-1.47-1.29-2.29-3.22-.81-1.92-.81-4.47 0-1.45.48-2.87.48-1.43 1.57-2.72 1.09-1.3 2.83-2.44 1.74-1.15 4.27-2 2.54-.85 5.91-1.39 3.36-.53 7.69-.65v-2.22q0-3.81-1.63-5.64-1.62-1.83-4.69-1.83-2.22 0-3.69.52-1.46.52-2.57 1.16-1.11.65-2.01 1.17-.91.52-2.02.52-.96 0-1.63-.5-.66-.5-1.07-1.17m37.11-8.21h9.18v37.96h-9.18zm10.43-11.06q0 1.18-.48 2.22-.48 1.03-1.27 1.81-.8.78-1.87 1.24-1.08.46-2.3.46-1.18 0-2.24-.46-1.05-.46-1.83-1.24-.77-.78-1.24-1.81-.46-1.04-.46-2.22 0-1.23.46-2.3.47-1.07 1.24-1.85.78-.78 1.83-1.24 1.06-.46 2.24-.46 1.22 0 2.3.46 1.07.46 1.87 1.24.79.78 1.27 1.85t.48 2.3m16.14 13.35.55 4.29q1.78-3.4 4.22-5.34t5.77-1.94q2.63 0 4.22 1.14l-.59 6.85q-.19.66-.54.94t-.94.28q-.56 0-1.65-.19-1.09-.18-2.13-.18-1.52 0-2.7.44-1.18.45-2.13 1.28-.94.83-1.66 2.02-.72 1.18-1.35 2.7v23.38h-9.14v-37.96h5.36q1.41 0 1.97.5.55.5.74 1.79"/></svg>